# xmcd
#
# Track frame offsets: 
#        150
#        15695
#        34600
#        53140
#        70210
#        83007
#        103792
#        121312
#        139022
#        152217
#        162052
#        173585
#        194462
#        215230
#        227342
#        250527
#        263770
#        278005
#        291575
#        308232
#
# Disc length: 4309 seconds
#
# Revision: 0
# Processed by: cddbd v1.5.1PL0 Copyright (c) Steve Scherf et al.
# Submitted via: ExactAudioCopy v0.95a5
#
DISCID=1410d314
DTITLE=Mason, Dutch - Special Brew-Gimme A Break
DYEAR=1992
DGENRE=Blues
TTITLE0=Bossman
TTITLE1=Yound Fashioned Way
TTITLE2=Mister Blue
TTITLE3=Honey Hush
TTITLE4=Movin' On
TTITLE5=Come Love
TTITLE6=Linda Lou
TTITLE7=Slo Fried Baloney
TTITLE8=Did You Mess Your Mind
TTITLE9=Wham Bam, Thank You Ma'am
TTITLE10=You Fool Around Too
TTITLE11=Trouble No More
TTITLE12=Nothing Left To Lose
TTITLE13=That's Life
TTITLE14=Tryin' To Find My Baby
TTITLE15=Long Distance Feelin'
TTITLE16=It's All Wrong
TTITLE17=Don't Tell Me
TTITLE18=I Got A Woman
TTITLE19=Go Down Gamblin
EXTD=
EXTT0=
EXTT1=
EXTT2=
EXTT3=
EXTT4=
EXTT5=
EXTT6=
EXTT7=
EXTT8=
EXTT9=
EXTT10=
EXTT11=
EXTT12=
EXTT13=
EXTT14=
EXTT15=
EXTT16=
EXTT17=
EXTT18=
EXTT19=
PLAYORDER=
